<svg width="137" height="49" viewBox="0 0 137 49" fill="none" xmlns="http://www.w3.org/2000/svg">
<path fill-rule="evenodd" clip-rule="evenodd" d="M45.0511 42.3914C45.8158 42.3914 46.4175 42.5719 46.8561 42.9329C47.2947 43.294 47.5139 43.7911 47.5139 44.4243C47.5139 45.0574 47.2947 45.5545 46.8561 45.9156C46.4175 46.2766 45.8158 46.4571 45.0511 46.4571H43.5919V48.2234H42.7485V42.3914H45.0511ZM45.0258 45.7323C45.56 45.7323 45.9676 45.6212 46.2488 45.399C46.5299 45.1713 46.6705 44.8464 46.6705 44.4243C46.6705 44.0021 46.5299 43.68 46.2488 43.4578C45.9676 43.2301 45.56 43.1162 45.0258 43.1162H43.5919V45.7323H45.0258ZM52.6586 46.0405C52.6586 46.1016 52.653 46.1822 52.6418 46.2822H49.015C49.0656 46.671 49.2371 46.9848 49.5295 47.2236C49.8275 47.4569 50.1958 47.5735 50.6344 47.5735C51.1686 47.5735 51.5987 47.3958 51.9248 47.0403L52.3719 47.5569C52.1694 47.7901 51.9164 47.9679 51.6128 48.0901C51.3148 48.2123 50.9802 48.2734 50.6091 48.2734C50.1367 48.2734 49.7178 48.1789 49.3523 47.9901C48.9868 47.7957 48.7029 47.5263 48.5005 47.182C48.3036 46.8376 48.2052 46.4488 48.2052 46.0156C48.2052 45.5879 48.3008 45.2019 48.492 44.8575C48.6888 44.5131 48.9559 44.2465 49.2933 44.0577C49.6363 43.8633 50.0215 43.7661 50.4488 43.7661C50.8762 43.7661 51.2557 43.8633 51.5875 44.0577C51.9248 44.2465 52.1863 44.5131 52.3719 44.8575C52.5631 45.2019 52.6586 45.5962 52.6586 46.0405ZM50.4488 44.4409C50.0608 44.4409 49.7347 44.5576 49.4704 44.7908C49.2118 45.0241 49.0599 45.3296 49.015 45.7073H51.8827C51.8377 45.3352 51.6831 45.0325 51.4188 44.7992C51.1601 44.5603 50.8368 44.4409 50.4488 44.4409ZM54.559 44.5492C54.6995 44.2937 54.9076 44.0993 55.1831 43.966C55.4586 43.8327 55.7932 43.7661 56.1868 43.7661V44.5409C56.1418 44.5353 56.08 44.5326 56.0013 44.5326C55.5627 44.5326 55.2169 44.6631 54.9638 44.9241C54.7164 45.1796 54.5927 45.5462 54.5927 46.0239V48.2234H53.783V43.8077H54.559V44.5492ZM58.4998 48.2734C58.1343 48.2734 57.7828 48.2262 57.4455 48.1317C57.1081 48.0318 56.8438 47.9068 56.6526 47.7568L56.99 47.1236C57.1868 47.2625 57.4258 47.3736 57.7069 47.4569C57.9881 47.5402 58.272 47.5819 58.5588 47.5819C59.2673 47.5819 59.6216 47.3819 59.6216 46.982C59.6216 46.8487 59.5738 46.7432 59.4782 46.6654C59.3826 46.5876 59.2617 46.5321 59.1155 46.4988C58.9749 46.4599 58.7725 46.4182 58.5082 46.3738C58.1483 46.3183 57.8531 46.2544 57.6226 46.1822C57.3977 46.11 57.2037 45.9878 57.0406 45.8156C56.8775 45.6434 56.796 45.4018 56.796 45.0908C56.796 44.6909 56.9647 44.3715 57.3021 44.1327C57.6395 43.8883 58.0921 43.7661 58.66 43.7661C58.9581 43.7661 59.2561 43.8022 59.5541 43.8744C59.8521 43.9466 60.0967 44.0438 60.2879 44.166L59.9421 44.7992C59.5766 44.5659 59.1464 44.4493 58.6516 44.4493C58.3086 44.4493 58.0471 44.5048 57.8672 44.6159C57.6873 44.727 57.5973 44.8742 57.5973 45.0574C57.5973 45.2019 57.6479 45.3157 57.7491 45.399C57.8503 45.4823 57.974 45.5434 58.1202 45.5823C58.272 45.6212 58.4829 45.6656 58.7528 45.7156C59.1127 45.7767 59.4023 45.8434 59.6216 45.9156C59.8465 45.9822 60.0377 46.0989 60.1951 46.2655C60.3526 46.4321 60.4313 46.6654 60.4313 46.9653C60.4313 47.3652 60.257 47.6846 59.9083 47.9234C59.5653 48.1567 59.0958 48.2734 58.4998 48.2734ZM63.3578 48.2734C62.9136 48.2734 62.5144 48.1762 62.1601 47.9818C61.8059 47.7874 61.5276 47.5208 61.3251 47.182C61.1283 46.8376 61.0299 46.4488 61.0299 46.0156C61.0299 45.5823 61.1283 45.1963 61.3251 44.8575C61.5276 44.5131 61.8059 44.2465 62.1601 44.0577C62.5144 43.8633 62.9136 43.7661 63.3578 43.7661C63.802 43.7661 64.1985 43.8633 64.5471 44.0577C64.9013 44.2465 65.1769 44.5131 65.3737 44.8575C65.5761 45.1963 65.6773 45.5823 65.6773 46.0156C65.6773 46.4488 65.5761 46.8376 65.3737 47.182C65.1769 47.5208 64.9013 47.7874 64.5471 47.9818C64.1985 48.1762 63.802 48.2734 63.3578 48.2734ZM63.3578 47.5735C63.6446 47.5735 63.9004 47.5097 64.1254 47.3819C64.3559 47.2486 64.5358 47.0653 64.6652 46.832C64.7945 46.5932 64.8592 46.321 64.8592 46.0156C64.8592 45.7101 64.7945 45.4407 64.6652 45.2074C64.5358 44.9686 64.3559 44.7853 64.1254 44.6575C63.9004 44.5298 63.6446 44.4659 63.3578 44.4659C63.0711 44.4659 62.8124 44.5298 62.5819 44.6575C62.3569 44.7853 62.177 44.9686 62.0421 45.2074C61.9127 45.4407 61.8481 45.7101 61.8481 46.0156C61.8481 46.321 61.9127 46.5932 62.0421 46.832C62.177 47.0653 62.3569 47.2486 62.5819 47.3819C62.8124 47.5097 63.0711 47.5735 63.3578 47.5735ZM69.1841 43.7661C69.752 43.7661 70.2018 43.9299 70.5336 44.2576C70.871 44.5798 71.0397 45.0547 71.0397 45.6823V48.2234H70.2299V45.7739C70.2299 45.3463 70.1259 45.0241 69.9179 44.8075C69.7098 44.5909 69.4118 44.4826 69.0238 44.4826C68.5852 44.4826 68.2394 44.6103 67.9864 44.8658C67.7333 45.1158 67.6068 45.4768 67.6068 45.9489V48.2234H66.7971V43.8077H67.5731V44.4742C67.7362 44.2465 67.9555 44.0716 68.231 43.9494C68.5121 43.8272 68.8298 43.7661 69.1841 43.7661ZM74.166 43.7661C74.7845 43.7661 75.2569 43.916 75.583 44.216C75.9148 44.5159 76.0806 44.963 76.0806 45.5573V48.2234H75.3131V47.6402C75.1781 47.8457 74.9841 48.004 74.7311 48.1151C74.4837 48.2206 74.1885 48.2734 73.8455 48.2734C73.3451 48.2734 72.943 48.1539 72.6394 47.9151C72.3414 47.6763 72.1923 47.3625 72.1923 46.9737C72.1923 46.5849 72.3357 46.2738 72.6225 46.0405C72.9093 45.8017 73.3647 45.6823 73.9889 45.6823H75.2709V45.524C75.2709 45.1796 75.1697 44.9158 74.9673 44.7325C74.7649 44.5492 74.4668 44.4576 74.0732 44.4576C73.8089 44.4576 73.5503 44.502 73.2973 44.5909C73.0442 44.6742 72.8306 44.7881 72.6562 44.9325L72.3189 44.3326C72.5494 44.1493 72.8249 44.0105 73.1454 43.916C73.466 43.8161 73.8061 43.7661 74.166 43.7661ZM73.9805 47.6568C74.2897 47.6568 74.5568 47.5902 74.7817 47.4569C75.0066 47.318 75.1697 47.1236 75.2709 46.8737V46.2572H74.0226C73.3366 46.2572 72.9936 46.4849 72.9936 46.9403C72.9936 47.1625 73.0808 47.3375 73.2551 47.4652C73.4294 47.593 73.6712 47.6568 73.9805 47.6568ZM78.8611 48.2734C78.4956 48.2734 78.1442 48.2262 77.8068 48.1317C77.4694 48.0318 77.2051 47.9068 77.014 47.7568L77.3513 47.1236C77.5481 47.2625 77.7871 47.3736 78.0683 47.4569C78.3494 47.5402 78.6334 47.5819 78.9202 47.5819C79.6286 47.5819 79.9829 47.3819 79.9829 46.982C79.9829 46.8487 79.9351 46.7432 79.8395 46.6654C79.7439 46.5876 79.623 46.5321 79.4768 46.4988C79.3363 46.4599 79.1338 46.4182 78.8695 46.3738C78.5097 46.3183 78.2145 46.2544 77.9839 46.1822C77.759 46.11 77.565 45.9878 77.4019 45.8156C77.2389 45.6434 77.1573 45.4018 77.1573 45.0908C77.1573 44.6909 77.326 44.3715 77.6634 44.1327C78.0008 43.8883 78.4534 43.7661 79.0214 43.7661C79.3194 43.7661 79.6174 43.8022 79.9154 43.8744C80.2134 43.9466 80.458 44.0438 80.6492 44.166L80.3034 44.7992C79.9379 44.5659 79.5078 44.4493 79.0129 44.4493C78.6699 44.4493 78.4085 44.5048 78.2285 44.6159C78.0486 44.727 77.9586 44.8742 77.9586 45.0574C77.9586 45.2019 78.0092 45.3157 78.1104 45.399C78.2117 45.4823 78.3354 45.5434 78.4816 45.5823C78.6334 45.6212 78.8442 45.6656 79.1141 45.7156C79.474 45.7767 79.7636 45.8434 79.9829 45.9156C80.2078 45.9822 80.399 46.0989 80.5564 46.2655C80.7139 46.4321 80.7926 46.6654 80.7926 46.9653C80.7926 47.3652 80.6183 47.6846 80.2697 47.9234C79.9267 48.1567 79.4571 48.2734 78.8611 48.2734ZM88.1098 46.0405C88.1098 46.1016 88.1041 46.1822 88.0929 46.2822H84.4661C84.5167 46.671 84.6882 46.9848 84.9806 47.2236C85.2786 47.4569 85.6469 47.5735 86.0855 47.5735C86.6197 47.5735 87.0498 47.3958 87.376 47.0403L87.823 47.5569C87.6206 47.7901 87.3675 47.9679 87.0639 48.0901C86.7659 48.2123 86.4313 48.2734 86.0602 48.2734C85.5879 48.2734 85.1689 48.1789 84.8034 47.9901C84.438 47.7957 84.154 47.5263 83.9516 47.182C83.7548 46.8376 83.6564 46.4488 83.6564 46.0156C83.6564 45.5879 83.752 45.2019 83.9431 44.8575C84.1399 44.5131 84.407 44.2465 84.7444 44.0577C85.0874 43.8633 85.4726 43.7661 85.8999 43.7661C86.3273 43.7661 86.7068 43.8633 87.0386 44.0577C87.376 44.2465 87.6374 44.5131 87.823 44.8575C88.0142 45.2019 88.1098 45.5962 88.1098 46.0405ZM85.8999 44.4409C85.5119 44.4409 85.1858 44.5576 84.9215 44.7908C84.6629 45.0241 84.5111 45.3296 84.4661 45.7073H87.3338C87.2888 45.3352 87.1342 45.0325 86.8699 44.7992C86.6112 44.5603 86.2879 44.4409 85.8999 44.4409ZM91.4992 43.8077H92.3089V48.2234H91.4992V43.8077ZM91.9041 42.9579C91.7466 42.9579 91.6145 42.9079 91.5077 42.808C91.4065 42.708 91.3559 42.5858 91.3559 42.4414C91.3559 42.297 91.4065 42.1748 91.5077 42.0748C91.6145 41.9693 91.7466 41.9165 91.9041 41.9165C92.0615 41.9165 92.1909 41.9665 92.2921 42.0665C92.3989 42.1609 92.4523 42.2803 92.4523 42.4247C92.4523 42.5747 92.3989 42.7024 92.2921 42.808C92.1909 42.9079 92.0615 42.9579 91.9041 42.9579ZM96.2419 43.7661C96.8098 43.7661 97.2597 43.9299 97.5914 44.2576C97.9288 44.5798 98.0975 45.0547 98.0975 45.6823V48.2234H97.2878V45.7739C97.2878 45.3463 97.1838 45.0241 96.9757 44.8075C96.7677 44.5909 96.4696 44.4826 96.0817 44.4826C95.6431 44.4826 95.2972 44.6103 95.0442 44.8658C94.7912 45.1158 94.6647 45.4768 94.6647 45.9489V48.2234H93.855V43.8077H94.6309V44.4742C94.794 44.2465 95.0133 44.0716 95.2888 43.9494C95.57 43.8272 95.8877 43.7661 96.2419 43.7661ZM101.983 43.7661C102.551 43.7661 103.001 43.9299 103.332 44.2576C103.67 44.5798 103.839 45.0547 103.839 45.6823V48.2234H103.029V45.7739C103.029 45.3463 102.925 45.0241 102.717 44.8075C102.509 44.5909 102.211 44.4826 101.823 44.4826C101.384 44.4826 101.038 44.6103 100.785 44.8658C100.532 45.1158 100.406 45.4768 100.406 45.9489V48.2234H99.596V43.8077H100.372V44.4742C100.535 44.2465 100.754 44.0716 101.03 43.9494C101.311 43.8272 101.629 43.7661 101.983 43.7661ZM107.276 48.2734C106.832 48.2734 106.433 48.1762 106.079 47.9818C105.724 47.7874 105.446 47.5208 105.244 47.182C105.047 46.8376 104.948 46.4488 104.948 46.0156C104.948 45.5823 105.047 45.1963 105.244 44.8575C105.446 44.5131 105.724 44.2465 106.079 44.0577C106.433 43.8633 106.832 43.7661 107.276 43.7661C107.721 43.7661 108.117 43.8633 108.466 44.0577C108.82 44.2465 109.095 44.5131 109.292 44.8575C109.495 45.1963 109.596 45.5823 109.596 46.0156C109.596 46.4488 109.495 46.8376 109.292 47.182C109.095 47.5208 108.82 47.7874 108.466 47.9818C108.117 48.1762 107.721 48.2734 107.276 48.2734ZM107.276 47.5735C107.563 47.5735 107.819 47.5097 108.044 47.3819C108.274 47.2486 108.454 47.0653 108.584 46.832C108.713 46.5932 108.778 46.321 108.778 46.0156C108.778 45.7101 108.713 45.4407 108.584 45.2074C108.454 44.9686 108.274 44.7853 108.044 44.6575C107.819 44.5298 107.563 44.4659 107.276 44.4659C106.99 44.4659 106.731 44.5298 106.5 44.6575C106.275 44.7853 106.096 44.9686 105.961 45.2074C105.831 45.4407 105.767 45.7101 105.767 46.0156C105.767 46.321 105.831 46.5932 105.961 46.832C106.096 47.0653 106.275 47.2486 106.5 47.3819C106.731 47.5097 106.99 47.5735 107.276 47.5735ZM114.548 43.8077L112.591 48.2234H111.764L109.808 43.8077H110.651L112.186 47.3486L113.755 43.8077H114.548ZM116.791 43.7661C117.41 43.7661 117.882 43.916 118.208 44.216C118.54 44.5159 118.706 44.963 118.706 45.5573V48.2234H117.938V47.6402C117.804 47.8457 117.61 48.004 117.356 48.1151C117.109 48.2206 116.814 48.2734 116.471 48.2734C115.97 48.2734 115.568 48.1539 115.265 47.9151C114.967 47.6763 114.818 47.3625 114.818 46.9737C114.818 46.5849 114.961 46.2738 115.248 46.0405C115.535 45.8017 115.99 45.6823 116.614 45.6823H117.896V45.524C117.896 45.1796 117.795 44.9158 117.593 44.7325C117.39 44.5492 117.092 44.4576 116.699 44.4576C116.434 44.4576 116.176 44.502 115.923 44.5909C115.67 44.6742 115.456 44.7881 115.282 44.9325L114.944 44.3326C115.175 44.1493 115.45 44.0105 115.771 43.916C116.091 43.8161 116.432 43.7661 116.791 43.7661ZM116.606 47.6568C116.915 47.6568 117.182 47.5902 117.407 47.4569C117.632 47.318 117.795 47.1236 117.896 46.8737V46.2572H116.648C115.962 46.2572 115.619 46.4849 115.619 46.9403C115.619 47.1625 115.706 47.3375 115.88 47.4652C116.055 47.593 116.297 47.6568 116.606 47.6568ZM122.177 48.2734C121.722 48.2734 121.314 48.1762 120.955 47.9818C120.6 47.7874 120.322 47.5208 120.119 47.182C119.917 46.8376 119.816 46.4488 119.816 46.0156C119.816 45.5823 119.917 45.1963 120.119 44.8575C120.322 44.5131 120.6 44.2465 120.955 44.0577C121.314 43.8633 121.722 43.7661 122.177 43.7661C122.582 43.7661 122.942 43.8466 123.257 44.0077C123.578 44.1688 123.825 44.402 123.999 44.7075L123.384 45.0991C123.243 44.888 123.069 44.7297 122.861 44.6242C122.653 44.5187 122.422 44.4659 122.169 44.4659C121.877 44.4659 121.612 44.5298 121.376 44.6575C121.146 44.7853 120.963 44.9686 120.828 45.2074C120.699 45.4407 120.634 45.7101 120.634 46.0156C120.634 46.3266 120.699 46.6015 120.828 46.8404C120.963 47.0736 121.146 47.2542 121.376 47.3819C121.612 47.5097 121.877 47.5735 122.169 47.5735C122.422 47.5735 122.653 47.5208 122.861 47.4152C123.069 47.3097 123.243 47.1514 123.384 46.9403L123.999 47.3236C123.825 47.6291 123.578 47.8651 123.257 48.0318C122.942 48.1928 122.582 48.2734 122.177 48.2734ZM125.048 43.8077H125.857V48.2234H125.048V43.8077ZM125.453 42.9579C125.295 42.9579 125.163 42.9079 125.056 42.808C124.955 42.708 124.904 42.5858 124.904 42.4414C124.904 42.297 124.955 42.1748 125.056 42.0748C125.163 41.9693 125.295 41.9165 125.453 41.9165C125.61 41.9165 125.739 41.9665 125.84 42.0665C125.947 42.1609 126.001 42.2803 126.001 42.4247C126.001 42.5747 125.947 42.7024 125.84 42.808C125.739 42.9079 125.61 42.9579 125.453 42.9579ZM129.318 48.2734C128.874 48.2734 128.475 48.1762 128.12 47.9818C127.766 47.7874 127.488 47.5208 127.285 47.182C127.088 46.8376 126.99 46.4488 126.99 46.0156C126.99 45.5823 127.088 45.1963 127.285 44.8575C127.488 44.5131 127.766 44.2465 128.12 44.0577C128.475 43.8633 128.874 43.7661 129.318 43.7661C129.762 43.7661 130.159 43.8633 130.507 44.0577C130.862 44.2465 131.137 44.5131 131.334 44.8575C131.536 45.1963 131.637 45.5823 131.637 46.0156C131.637 46.4488 131.536 46.8376 131.334 47.182C131.137 47.5208 130.862 47.7874 130.507 47.9818C130.159 48.1762 129.762 48.2734 129.318 48.2734ZM129.318 47.5735C129.605 47.5735 129.861 47.5097 130.086 47.3819C130.316 47.2486 130.496 47.0653 130.625 46.832C130.755 46.5932 130.819 46.321 130.819 46.0156C130.819 45.7101 130.755 45.4407 130.625 45.2074C130.496 44.9686 130.316 44.7853 130.086 44.6575C129.861 44.5298 129.605 44.4659 129.318 44.4659C129.031 44.4659 128.773 44.5298 128.542 44.6575C128.317 44.7853 128.137 44.9686 128.002 45.2074C127.873 45.4407 127.808 45.7101 127.808 46.0156C127.808 46.321 127.873 46.5932 128.002 46.832C128.137 47.0653 128.317 47.2486 128.542 47.3819C128.773 47.5097 129.031 47.5735 129.318 47.5735ZM129.824 42.0831H130.853L129.436 43.1662H128.677L129.824 42.0831ZM135.144 43.7661C135.712 43.7661 136.162 43.9299 136.494 44.2576C136.831 44.5798 137 45.0547 137 45.6823V48.2234H136.19V45.7739C136.19 45.3463 136.086 45.0241 135.878 44.8075C135.67 44.5909 135.372 44.4826 134.984 44.4826C134.545 44.4826 134.2 44.6103 133.947 44.8658C133.694 45.1158 133.567 45.4768 133.567 45.9489V48.2234H132.757V43.8077H133.533V44.4742C133.696 44.2465 133.916 44.0716 134.191 43.9494C134.472 43.8272 134.79 43.7661 135.144 43.7661Z" fill="white"/>
<path fill-rule="evenodd" clip-rule="evenodd" d="M58.8102 24.745H60.9188V33.643H58.8102V24.745ZM59.873 23.2787C59.4906 23.2787 59.1701 23.1621 58.9114 22.9288C58.6528 22.6844 58.5234 22.3845 58.5234 22.029C58.5234 21.6735 58.6528 21.3792 58.9114 21.1459C59.1701 20.9015 59.4906 20.7793 59.873 20.7793C60.2553 20.7793 60.5758 20.8959 60.8345 21.1292C61.0931 21.3514 61.2225 21.6347 61.2225 21.979C61.2225 22.3456 61.0931 22.6566 60.8345 22.9121C60.5871 23.1565 60.2666 23.2787 59.873 23.2787ZM72.6269 24.745V32.2933C72.6269 35.4259 71.0075 36.9922 67.7687 36.9922C66.9027 36.9922 66.0818 36.8811 65.3058 36.659C64.5298 36.4479 63.8888 36.1369 63.3827 35.7258L64.3274 34.1595C64.721 34.4817 65.2158 34.7372 65.8119 34.926C66.4192 35.126 67.0321 35.226 67.6506 35.226C68.6402 35.226 69.3656 35.0038 69.8267 34.5594C70.2878 34.1151 70.5183 33.4375 70.5183 32.5266V32.06C70.1584 32.4488 69.7198 32.7432 69.2025 32.9431C68.6852 33.1431 68.1173 33.2431 67.4988 33.2431C66.6441 33.2431 65.8681 33.0653 65.1709 32.7099C64.4848 32.3433 63.9394 31.8323 63.5346 31.1769C63.141 30.5215 62.9442 29.7717 62.9442 28.9274C62.9442 28.0832 63.141 27.3389 63.5346 26.6946C63.9394 26.0392 64.4848 25.5338 65.1709 25.1783C65.8681 24.8228 66.6441 24.6451 67.4988 24.6451C68.151 24.6451 68.7414 24.7506 69.27 24.9617C69.8098 25.1727 70.2596 25.4949 70.6195 25.9281V24.745H72.6269ZM67.8193 31.4768C68.6177 31.4768 69.27 31.2435 69.7761 30.777C70.2934 30.2993 70.552 29.6828 70.552 28.9274C70.552 28.1831 70.2934 27.5777 69.7761 27.1112C69.27 26.6446 68.6177 26.4113 67.8193 26.4113C67.0096 26.4113 66.3461 26.6446 65.8287 27.1112C65.3227 27.5777 65.0696 28.1831 65.0696 28.9274C65.0696 29.6828 65.3227 30.2993 65.8287 30.777C66.3461 31.2435 67.0096 31.4768 67.8193 31.4768ZM75.3991 24.745H77.5077V33.643H75.3991V24.745ZM76.4618 23.2787C76.0795 23.2787 75.759 23.1621 75.5003 22.9288C75.2416 22.6844 75.1123 22.3845 75.1123 22.029C75.1123 21.6735 75.2416 21.3792 75.5003 21.1459C75.759 20.9015 76.0795 20.7793 76.4618 20.7793C76.8442 20.7793 77.1647 20.8959 77.4234 21.1292C77.682 21.3514 77.8114 21.6347 77.8114 21.979C77.8114 22.3456 77.682 22.6566 77.4234 22.9121C77.176 23.1565 76.8554 23.2787 76.4618 23.2787ZM85.6902 33.1598C85.4428 33.3597 85.1392 33.5097 84.7793 33.6097C84.4307 33.7096 84.0595 33.7596 83.6659 33.7596C82.6763 33.7596 81.9116 33.5041 81.3718 32.9931C80.832 32.4821 80.562 31.7379 80.562 30.7603V26.478H79.0776V24.8117H80.562V22.7788H82.6707V24.8117H85.0829V26.478H82.6707V30.7103C82.6707 31.1436 82.7775 31.4768 82.9912 31.7101C83.2048 31.9323 83.5141 32.0434 83.919 32.0434C84.3913 32.0434 84.7849 31.9212 85.0998 31.6768L85.6902 33.1598ZM90.8661 24.6451C92.1931 24.6451 93.2052 24.9617 93.9025 25.5949C94.611 26.2169 94.9652 27.1612 94.9652 28.4275V33.643H92.9747V32.5599C92.716 32.9487 92.3449 33.2486 91.8613 33.4597C91.389 33.6596 90.8155 33.7596 90.1407 33.7596C89.4659 33.7596 88.8755 33.6485 88.3695 33.4264C87.8634 33.1931 87.4698 32.8765 87.1886 32.4766C86.9187 32.0656 86.7838 31.6046 86.7838 31.0936C86.7838 30.2938 87.0818 29.655 87.6778 29.1774C88.2851 28.6886 89.2354 28.4442 90.5287 28.4442H92.8566V28.3109C92.8566 27.6888 92.6654 27.2111 92.2831 26.8779C91.9119 26.5446 91.3553 26.378 90.613 26.378C90.107 26.378 89.6065 26.4558 89.1117 26.6113C88.6281 26.7668 88.2176 26.9834 87.8803 27.2611L87.0537 25.7448C87.526 25.3893 88.0939 25.1172 88.7574 24.9283C89.421 24.7395 90.1238 24.6451 90.8661 24.6451ZM90.5793 32.2433C91.1078 32.2433 91.5746 32.1267 91.9794 31.8934C92.3955 31.649 92.6879 31.3046 92.8566 30.8603V29.8272H90.6805C89.4659 29.8272 88.8587 30.2216 88.8587 31.0103C88.8587 31.388 89.0105 31.6879 89.3141 31.9101C89.6178 32.1322 90.0395 32.2433 90.5793 32.2433ZM97.6714 21.2792H99.78V33.643H97.6714V21.2792Z" fill="white"/>
<path fill-rule="evenodd" clip-rule="evenodd" d="M49.2164 19.3965C54.0347 19.3965 57.3247 22.4291 57.3247 26.9781C57.3247 31.527 54.0347 34.5596 49.2164 34.5596H42.7213V31.975H49.1226C52.4521 31.975 54.6077 29.9288 54.6077 26.8058C54.6077 23.6827 52.4521 21.6365 49.1226 21.6365H42.7213V19.3965H49.2164ZM45.592 25.7949V28.7165H42.7213V25.7949H45.592Z" fill="white"/>
<path fill-rule="evenodd" clip-rule="evenodd" d="M46.4456 16.064C45.5347 16.064 44.6519 15.9363 43.7972 15.6808C42.9538 15.4253 42.2846 15.0865 41.7898 14.6643L42.5489 12.9814C43.0325 13.3591 43.6229 13.6701 44.3201 13.9145C45.0286 14.1478 45.7371 14.2644 46.4456 14.2644C47.3228 14.2644 47.9751 14.1256 48.4024 13.8479C48.841 13.5701 49.0603 13.2036 49.0603 12.7481C49.0603 12.4148 48.9366 12.1427 48.6892 11.9316C48.453 11.7095 48.1494 11.5373 47.7783 11.4151C47.4071 11.2929 46.9011 11.154 46.2601 10.9985C45.3604 10.7874 44.6294 10.5764 44.0671 10.3653C43.516 10.1543 43.0381 9.82656 42.6332 9.38222C42.2396 8.92677 42.0428 8.3158 42.0428 7.54931C42.0428 6.90502 42.2171 6.32182 42.5658 5.79972C42.9256 5.26651 43.4598 4.84438 44.1683 4.53334C44.8881 4.22231 45.7652 4.06679 46.7999 4.06679C47.5196 4.06679 48.2281 4.15565 48.9254 4.33339C49.6226 4.51113 50.2243 4.76662 50.7303 5.09988L50.0387 6.78282C49.5214 6.48289 48.9816 6.25517 48.4193 6.09965C47.857 5.94413 47.3116 5.86637 46.783 5.86637C45.9171 5.86637 45.2704 6.01078 44.8431 6.2996C44.427 6.58842 44.2189 6.97167 44.2189 7.44933C44.2189 7.78259 44.337 8.05475 44.5732 8.26581C44.8206 8.47687 45.1298 8.6435 45.501 8.7657C45.8721 8.88789 46.3781 9.02675 47.0192 9.18227C47.8963 9.38222 48.6161 9.59328 49.1784 9.81545C49.7407 10.0265 50.2186 10.3542 50.6122 10.7986C51.0171 11.2429 51.2195 11.8428 51.2195 12.5981C51.2195 13.2424 51.0396 13.8256 50.6797 14.3477C50.3311 14.8698 49.7969 15.2864 49.0772 15.5974C48.3574 15.9085 47.4802 16.064 46.4456 16.064ZM53.1916 6.99944H55.3002V15.8974H53.1916V6.99944ZM54.2544 5.53311C53.872 5.53311 53.5515 5.41647 53.2928 5.18319C53.0342 4.93881 52.9048 4.63888 52.9048 4.2834C52.9048 3.92793 53.0342 3.63355 53.2928 3.40027C53.5515 3.15588 53.872 3.03369 54.2544 3.03369C54.6367 3.03369 54.9572 3.15033 55.2159 3.38361C55.4745 3.60578 55.6039 3.88905 55.6039 4.23341C55.6039 4.6 55.4745 4.91103 55.2159 5.16653C54.9685 5.41092 54.648 5.53311 54.2544 5.53311ZM63.4827 15.4142C63.2353 15.6141 62.9317 15.7641 62.5718 15.864C62.2232 15.964 61.8521 16.014 61.4584 16.014C60.4688 16.014 59.7041 15.7585 59.1643 15.2475C58.6245 14.7365 58.3546 13.9923 58.3546 13.0147V8.73237H56.8701V7.06609H58.3546V5.03323H60.4632V7.06609H62.8754V8.73237H60.4632V12.9647C60.4632 13.398 60.57 13.7312 60.7837 13.9645C60.9974 14.1867 61.3066 14.2977 61.7115 14.2977C62.1838 14.2977 62.5774 14.1756 62.8923 13.9312L63.4827 15.4142Z" fill="white"/>
<path fill-rule="evenodd" clip-rule="evenodd" d="M32.1534 3.71198L28.6425 5.55598L30.2394 8.52264L33.7503 6.67864L32.1534 3.71198ZM12.6846 17.7426L12.9505 18.2366C13.5373 19.3268 13.1854 20.6894 12.199 21.6261L27.097 27.7843L30.2594 12.1406C28.9216 12.4246 27.5812 11.9508 26.9943 10.8606L26.7284 10.3666L12.6846 17.7426ZM7.57666 16.62L4.0657 18.464L5.66261 21.4307L9.17358 19.5867L7.57666 16.62ZM29.1294 35.7432L32.6404 33.8992L31.0435 30.9326L27.5325 32.7766L29.1294 35.7432ZM35.9319 9.33826L34.5064 10.0869L31.0227 27.3132C32.3613 27.0306 33.7009 27.5029 34.2878 28.5931L36.4173 32.5492C37.1511 33.9124 36.4352 35.7115 34.8219 36.5589L30.1418 39.0169C28.5285 39.8642 26.6182 39.4444 25.8844 38.0812L23.7549 34.1251C23.168 33.0349 23.5207 31.6738 24.5064 30.7356L8.10046 23.9557L6.675 24.7043C5.06171 25.5517 3.15137 25.1318 2.41759 23.7686L0.288101 19.8126C-0.445681 18.4494 0.270973 16.6517 1.88426 15.8044L6.56438 13.3463C8.17767 12.499 10.0872 12.9174 10.821 14.2806L11.0877 14.776L25.1316 7.39999L24.8649 6.90455C24.1311 5.54137 24.8477 3.74367 26.461 2.89635L31.1411 0.438297C32.7544 -0.409023 34.664 0.00936752 35.3978 1.37255L37.5273 5.32858C38.261 6.69176 37.5452 8.49094 35.9319 9.33826Z" fill="#FDC000"/>
</svg>
