<svg width="114" height="114" viewBox="0 0 114 114" fill="none" xmlns="http://www.w3.org/2000/svg">
<path fill-rule="evenodd" clip-rule="evenodd" d="M57 114C88.4802 114 114 88.4802 114 57C114 25.5198 88.4802 0 57 0C25.5198 0 0 25.5198 0 57C0 88.4802 25.5198 114 57 114ZM66.4753 35.4348L72.4174 32.3035L75.1201 37.3413L69.178 40.4727L66.4753 35.4348ZM39.9177 56.9685L39.4677 56.1296L63.236 43.604L63.686 44.4429C64.6792 46.2942 66.9477 47.0989 69.2118 46.6165L63.8597 73.1819L38.6459 62.7244C40.3154 61.1335 40.9109 58.8198 39.9177 56.9685ZM24.8809 57.3545L30.8229 54.2231L33.5256 59.261L27.5836 62.3923L24.8809 57.3545ZM73.2415 83.5659L67.2994 86.6973L64.5968 81.6594L70.5388 78.5281L73.2415 83.5659ZM76.3997 43.1292L78.8121 41.8577C81.5425 40.4189 82.754 37.3635 81.5122 35.0488L77.9082 28.3308C76.6663 26.0159 73.4345 25.3054 70.7042 26.7444L62.7834 30.9185C60.053 32.3572 58.8401 35.4102 60.082 37.7249L60.5333 38.5662L36.7651 51.0918L36.3138 50.2505C35.0719 47.9355 31.8401 47.2251 29.1097 48.6641L21.189 52.8381C18.4586 54.2771 17.2457 57.3298 18.4876 59.6445L22.0916 66.3625C23.3334 68.6775 26.5666 69.3904 29.2969 67.9517L31.7094 66.6802L59.4753 78.1936C57.8071 79.7866 57.2102 82.0981 58.2034 83.9495L61.8074 90.6675C63.0493 92.9822 66.2824 93.6953 69.0128 92.2563L76.9336 88.0823C79.6639 86.6433 80.8755 83.5881 79.6336 81.2732L76.0296 74.5554C75.0364 72.7039 72.7692 71.9019 70.5038 72.3818L76.3997 43.1292Z" fill="#FE6651"/>
</svg>
